# xmcd CD database file
#
# Track frame offsets:
#	150
#	25692
#	51057
#	77645
#
# Disc length: 1153 seconds
#
# Revision: 0
# Processed by: cddbd v1.5PL3 Copyright (c) Steve Scherf et al.
# Submitted via: CDex 1.50
#
DISCID=22047f04
DTITLE=SUNS OWL - OVER
DYEAR=1999
DGENRE=Hardcore
TTITLE0=ZOMBIE
TTITLE1=METAL METEOR
TTITLE2=MEMORIES
TTITLE3=WART HOG
EXTD=YEAR: 1999
EXTT0=
EXTT1=
EXTT2=
EXTT3=
PLAYORDER=
